<svg t="1664785164008" class="icon" viewBox="0 0 1024 1024" version="1.1" xmlns="http://www.w3.org/2000/svg" p-id="2747" width="200" height="200"><path d="M920.216 373.282s-155.09-84.012-266.406-44.552c-68.234 24.182-103.976 99.07-79.888 167.336 24.276 68.172 99.198 103.82 167.462 79.638 111.286-39.46 178.832-202.422 178.832-202.422z" fill="#A0D468" p-id="2748"></path><path d="M766.408 401.338a21.246 21.246 0 0 0-7.308 0c-2.812 0.468-69.172 12.09-142.282 51.52-31.43 16.902-59.392 36.49-83.48 58.33v-160.932h-42.662V557.52c-27.556 36.21-46.504 76.952-56.378 121.472l41.646 9.216c8.904-40.118 26.354-76.764 51.956-109.13h5.438v-6.654a305.138 305.138 0 0 1 5.544-6.406c25.666-28.774 58.346-54.018 97.088-75.044 67.078-36.398 129.688-47.488 130.312-47.614 8.624-1.5 15.778-8.186 17.402-17.278 2.064-11.624-5.684-22.684-17.276-24.744z" fill="#8CC153" p-id="2749"></path><path d="M216.568 812.554S372.19 556.082 512 554.646c139.81-1.468 295.432 257.908 295.432 257.908H216.568z" fill="#434A54" p-id="2750"></path><path d="M901.69 735.26c-6.684-0.532-14.028-0.782-22.086-0.782-52.488 0-134.22 11.186-246.226 30.932-13.934-39.742-102.476-57.176-102.476-57.176s-191.096-10.402-313.068-17.056c-7.78-0.438-15.31-0.624-22.558-0.624-161.572-0.032-195.158 100.82-195.158 100.82v104.476c0.062 59.89 184.66 89.26 185.286 89.354 146.638 28.962 326.864 38.68 326.864 38.68s493.87-194.05 506.836-205.39c12.964-11.312 7.276-73.236-117.414-83.234z" fill="#EAC6BB" p-id="2751"></path><path d="M771.784 743.446c-38.804 5.156-84.042 12.404-135.75 21.496a1341.336 1341.336 0 0 1-20.34 8.904C480.164 831.676 384.312 843.8 327.778 843.8c-11.778 0-21.324 9.558-21.324 21.338s9.544 21.308 21.324 21.308c88.198 0 190.924-24.776 305.32-73.64 69.17-29.588 120.782-58.832 138.686-69.36z" fill="#DBADA2" p-id="2752"></path><path d="M646.904 149.394C622.944 98.968 571.548 64.102 512 64.102s-110.958 34.868-134.922 85.292h-14.372v63.986c0 82.45 66.844 149.308 149.294 149.308 82.448 0 149.308-66.86 149.308-149.308V149.394h-14.404z" fill="#F6BB42" p-id="2753"></path><path d="M661.308 149.394c0 82.45-66.862 149.31-149.308 149.31-82.45 0-149.294-66.862-149.294-149.31S429.55 0.118 512 0.118c82.448 0 149.308 66.828 149.308 149.276z" fill="#FFCE54" p-id="2754"></path><path d="M533.338 106.748h-0.032c0-11.56-9.202-21.056-20.806-21.338-11.78-0.25-21.542 9.06-21.824 20.838 0 0.156 0.016 0.312 0.016 0.5h-0.016v85.324h0.016c0 11.53 9.202 21.028 20.808 21.308 11.778 0.282 21.542-9.06 21.822-20.84 0-0.156-0.016-0.312-0.016-0.468h0.032V106.748z" fill="#E8AA3D" p-id="2755"></path></svg>